<?xml version="1.0" encoding="utf-8"?>
<!-- Generator: Adobe Illustrator 21.0.0, SVG Export Plug-In . SVG Version: 6.00 Build 0)  -->
<svg version="1.1" id="Layer_1" xmlns="http://www.w3.org/2000/svg" xmlns:xlink="http://www.w3.org/1999/xlink" x="0px" y="0px"
	 viewBox="0 0 18 18" style="enable-background:new 0 0 18 18;" xml:space="preserve">
<style type="text/css">
	.st0{fill:none;}
</style>
<path d="M14.3,2.3h-0.8V0.8H12v1.5H6V0.8H4.5v1.5H3.8c-0.8,0-1.5,0.7-1.5,1.5v10.5c0,0.8,0.7,1.5,1.5,1.5h10.5
	c0.8,0,1.5-0.7,1.5-1.5V3.8C15.8,2.9,15.1,2.3,14.3,2.3z M9,4.5c1.2,0,2.3,1,2.3,2.3S10.2,9,9,9S6.8,8,6.8,6.8S7.8,4.5,9,4.5z
	 M13.5,13.5h-9v-0.8c0-1.5,3-2.3,4.5-2.3s4.5,0.8,4.5,2.3V13.5z"/>
<path class="st0" d="M0,0h18v18H0V0z"/>
</svg>
