<?xml version="1.0" encoding="utf-8"?>
<!-- Generator: Adobe Illustrator 21.0.0, SVG Export Plug-In . SVG Version: 6.00 Build 0)  -->
<svg version="1.0" id="Layer_1" xmlns="http://www.w3.org/2000/svg" xmlns:xlink="http://www.w3.org/1999/xlink" x="0px" y="0px"
	 viewBox="0 0 18 18" enable-background="new 0 0 18 18" xml:space="preserve">
<path d="M6.8,8.8c-0.5,0-0.9,0.4-0.9,0.9s0.4,0.9,0.9,0.9s0.9-0.4,0.9-0.9S7.3,8.8,6.8,8.8z M11.3,8.8c-0.5,0-0.9,0.4-0.9,0.9
	s0.4,0.9,0.9,0.9s0.9-0.4,0.9-0.9S11.8,8.8,11.3,8.8z M9,1.5C4.9,1.5,1.5,4.9,1.5,9s3.4,7.5,7.5,7.5s7.5-3.4,7.5-7.5S13.1,1.5,9,1.5
	z M9,15c-3.3,0-6-2.7-6-6c0-0.2,0-0.4,0-0.6c1.8-0.8,3.2-2.2,3.9-4c1.4,1.9,3.6,3.2,6.1,3.2c0.6,0,1.1-0.1,1.7-0.2
	C14.9,7.8,15,8.4,15,9C15,12.3,12.3,15,9,15z"/>
<path fill="none" d="M0,0h18v18H0V0z"/>
</svg>
