<?xml version="1.0" encoding="utf-8"?>
<!-- Generator: Adobe Illustrator 21.0.0, SVG Export Plug-In . SVG Version: 6.00 Build 0)  -->
<svg version="1.1" id="Layer_1" xmlns="http://www.w3.org/2000/svg" xmlns:xlink="http://www.w3.org/1999/xlink" x="0px" y="0px"
	 viewBox="0 0 18 18" style="enable-background:new 0 0 18 18;" xml:space="preserve">
<style type="text/css">
	.st0{fill:none;}
</style>
<path d="M13.4,3.4c-0.1,0-0.1,0-0.2,0C11.7,2.6,10.5,2.3,9,2.3c-1.5,0-2.9,0.4-4.2,1.1c-0.2,0.1-0.4,0-0.5-0.1
	C4.2,3,4.3,2.7,4.5,2.6C5.9,1.9,7.4,1.5,9,1.5c1.6,0,3,0.4,4.5,1.1c0.2,0.1,0.3,0.3,0.2,0.5C13.6,3.3,13.5,3.4,13.4,3.4z M2.6,7.3
	c-0.1,0-0.2,0-0.2-0.1C2.2,7.1,2.2,6.9,2.3,6.7C3.1,5.6,4,4.8,5.1,4.2c2.4-1.2,5.4-1.2,7.7,0c1.1,0.6,2.1,1.4,2.8,2.4
	c0.1,0.2,0.1,0.4-0.1,0.5c-0.2,0.1-0.4,0.1-0.5-0.1c-0.7-0.9-1.5-1.7-2.5-2.2c-2.2-1.1-4.9-1.1-7,0c-1,0.5-1.9,1.3-2.6,2.2
	C2.9,7.2,2.7,7.3,2.6,7.3z M7.3,16.3c-0.1,0-0.2,0-0.3-0.1c-0.7-0.7-1-1.1-1.5-2c-0.5-0.9-0.8-2-0.8-3.3c0-2.2,1.9-4,4.2-4
	s4.2,1.8,4.2,4c0,0.2-0.2,0.4-0.4,0.4s-0.4-0.2-0.4-0.4c0-1.8-1.6-3.3-3.5-3.3S5.5,9.2,5.5,11c0,1.1,0.2,2.1,0.7,2.9
	c0.5,0.9,0.8,1.2,1.4,1.8c0.1,0.1,0.1,0.4,0,0.5C7.5,16.3,7.4,16.3,7.3,16.3z M12.7,15c-0.9,0-1.7-0.2-2.3-0.7
	c-1.1-0.8-1.8-2-1.8-3.3c0-0.2,0.2-0.4,0.4-0.4c0.2,0,0.4,0.2,0.4,0.4c0,1.1,0.5,2.1,1.5,2.7c0.5,0.4,1.2,0.5,1.9,0.5
	c0.2,0,0.5,0,0.8-0.1c0.2,0,0.4,0.1,0.4,0.3c0,0.2-0.1,0.4-0.3,0.4C13.2,14.9,12.8,15,12.7,15z M11.2,16.5
	C11.2,16.5,11.1,16.5,11.2,16.5c-1.3-0.3-2.1-0.8-2.9-1.6c-1.1-1-1.6-2.4-1.6-3.9c0-1.2,1-2.2,2.3-2.2s2.3,1,2.3,2.2
	c0,0.8,0.7,1.5,1.6,1.5c0.9,0,1.6-0.7,1.6-1.5c0-2.8-2.4-5.1-5.4-5.1c-2.1,0-4.1,1.2-5,3C3.7,9.5,3.6,10.2,3.6,11
	c0,0.6,0.1,1.5,0.5,2.7c0.1,0.2,0,0.4-0.2,0.5c-0.2,0.1-0.4,0-0.5-0.2c-0.4-1-0.5-2-0.5-3c0-0.9,0.2-1.7,0.5-2.4
	c1-2.1,3.2-3.5,5.6-3.5c3.4,0,6.2,2.6,6.2,5.9c0,1.2-1,2.2-2.3,2.2c-1.3,0-2.3-1-2.3-2.2c0-0.8-0.7-1.5-1.6-1.5
	c-0.9,0-1.6,0.7-1.6,1.5c0,1.3,0.5,2.5,1.4,3.4c0.7,0.7,1.4,1.1,2.5,1.4c0.2,0.1,0.3,0.3,0.3,0.5C11.5,16.4,11.3,16.5,11.2,16.5z"/>
<path class="st0" d="M0,0h18v18H0V0z"/>
</svg>
