<?xml version="1.0" encoding="utf-8"?>
<!-- Generator: Adobe Illustrator 21.0.0, SVG Export Plug-In . SVG Version: 6.00 Build 0)  -->
<svg version="1.1" id="Layer_1" xmlns="http://www.w3.org/2000/svg" xmlns:xlink="http://www.w3.org/1999/xlink" x="0px" y="0px"
	 viewBox="0 0 18 18" style="enable-background:new 0 0 18 18;" xml:space="preserve">
<style type="text/css">
	.st0{fill:none;}
</style>
<path d="M11.6,0.8h-6c-1,0-1.9,0.8-1.9,1.9v12.8c0,1,0.8,1.9,1.9,1.9h6c1,0,1.9-0.8,1.9-1.9V2.6C13.5,1.6,12.7,0.8,11.6,0.8z
	 M8.6,16.5c-0.6,0-1.1-0.5-1.1-1.1s0.5-1.1,1.1-1.1s1.1,0.5,1.1,1.1S9.2,16.5,8.6,16.5z M12,13.5H5.3V3H12V13.5z"/>
<path class="st0" d="M0,0h18v18H0V0z"/>
</svg>
