<?xml version="1.0" encoding="utf-8"?>
<!-- Generated by IcoMoon.io -->
<!DOCTYPE svg PUBLIC "-//W3C//DTD SVG 1.1//EN" "http://www.w3.org/Graphics/SVG/1.1/DTD/svg11.dtd">
<svg version="1.1" xmlns="http://www.w3.org/2000/svg" xmlns:xlink="http://www.w3.org/1999/xlink" width="32" height="32" viewBox="0 0 32 32">
<path d="M28 10c1.104 0 2 0.896 2 2v16c0 1.104-0.896 2-2 2h-24c-1.103 0-2-0.896-2-2v-16c0-1.104 0.897-2 2-2h24zM28 8h-24c-2.209 0-4 1.791-4 4v16c0 2.209 1.791 4 4 4h24c2.209 0 4-1.791 4-4v-16c0-2.209-1.791-4-4-4v0zM10 6v-2c0-1.102 0.897-2 2-2h8c1.104 0 2 0.898 2 2v2h2v-2c0-2.209-1.791-4-4-4h-8c-2.209 0-4 1.791-4 4v2h2zM26 16c0-0.553-0.447-1-1-1h-18c-0.553 0-1 0.447-1 1v0c0 0.553 0.447 1 1 1h18c0.553 0 1-0.447 1-1v0zM26 20c0-0.553-0.447-1-1-1h-18c-0.553 0-1 0.447-1 1v0c0 0.553 0.447 1 1 1h18c0.553 0 1-0.447 1-1v0zM26 24c0-0.553-0.447-1-1-1h-18c-0.553 0-1 0.447-1 1v0c0 0.553 0.447 1 1 1h18c0.553 0 1-0.447 1-1v0z"></path>
</svg>
