<?xml version="1.0" encoding="utf-8"?>
<!-- Generated by IcoMoon.io -->
<!DOCTYPE svg PUBLIC "-//W3C//DTD SVG 1.1//EN" "http://www.w3.org/Graphics/SVG/1.1/DTD/svg11.dtd">
<svg version="1.1" xmlns="http://www.w3.org/2000/svg" xmlns:xlink="http://www.w3.org/1999/xlink" width="32" height="32" viewBox="0 0 32 32">
<path d="M16 0c-8.836 0-16 7.164-16 16s7.164 16 16 16 16-7.164 16-16c0-8.838-7.164-16-16-16zM12 23.75h-4v-14h4v14zM10.124 8.892c-1.036 0-1.874-0.84-1.874-1.876s0.84-1.876 1.874-1.876c1.036 0.002 1.876 0.842 1.876 1.876 0 1.036-0.84 1.876-1.876 1.876zM26 23.75h-4v-8.656c0-1.014-0.29-1.724-1.536-1.724-2.066 0-2.464 1.724-2.464 1.724v8.656h-4v-14h4v1.338c0.572-0.438 2-1.336 4-1.336 1.296 0 4 0.776 4 5.464v8.534z"></path>
</svg>
