<?xml version="1.0" encoding="utf-8"?>
<!-- Generated by IcoMoon.io -->
<!DOCTYPE svg PUBLIC "-//W3C//DTD SVG 1.1//EN" "http://www.w3.org/Graphics/SVG/1.1/DTD/svg11.dtd">
<svg version="1.1" xmlns="http://www.w3.org/2000/svg" xmlns:xlink="http://www.w3.org/1999/xlink" width="32" height="32" viewBox="0 0 32 32">
<path d="M26 22h-2c-2.209 0-4-1.791-4-4v-1.285c0.885-1.052 1.52-2.296 1.914-3.61 0.041-0.222 0.254-0.331 0.396-0.483 0.766-0.766 0.916-2.058 0.342-2.978-0.078-0.14-0.219-0.261-0.211-0.434 0-1.173 0.006-2.348-0.002-3.52-0.031-1.415-0.436-2.887-1.428-3.935-0.801-0.847-1.901-1.351-3.035-1.566-1.434-0.274-2.934-0.26-4.354 0.102-1.231 0.311-2.387 1.031-3.102 2.1-0.633 0.929-0.91 2.057-0.957 3.168-0.018 1.193-0.004 2.39-0.008 3.586 0.027 0.239-0.176 0.402-0.268 0.6-0.541 0.981-0.303 2.319 0.566 3.032 0.221 0.152 0.262 0.43 0.342 0.669 0.379 1.182 1.008 2.274 1.803 3.227v1.328c0 2.209-1.791 4-4 4h-2c0 0-3.625 1-6 6v2c0 1.105 0.895 2 2 2h28c1.105 0 2-0.894 2-2v-2c-2.375-5-6-6-6-6z"></path>
</svg>
