<?xml version="1.0" encoding="utf-8"?>
<!-- Generated by IcoMoon.io -->
<!DOCTYPE svg PUBLIC "-//W3C//DTD SVG 1.1//EN" "http://www.w3.org/Graphics/SVG/1.1/DTD/svg11.dtd">
<svg version="1.1" xmlns="http://www.w3.org/2000/svg" xmlns:xlink="http://www.w3.org/1999/xlink" width="32" height="32" viewBox="0 0 32 32">
<path d="M26.728 14.632c1.453 0 2.776 0.591 3.728 1.553 0.952 0.952 1.543 2.275 1.543 3.729s-0.591 2.776-1.543 3.729c-0.952 0.962-2.275 1.553-3.728 1.553h-19.633c-1.964 0-3.738-0.802-5.021-2.085s-2.074-3.057-2.074-5.011c0-1.964 0.792-3.738 2.075-5.021s3.057-2.075 5.021-2.075c0.471 0 0.942 0.050 1.403 0.14 0.251 0.050 0.501 0.12 0.751 0.2 0.751-1.293 1.824-2.375 3.097-3.167 1.403-0.872 3.057-1.373 4.821-1.373 2.435 0 4.65 0.952 6.294 2.495 1.473 1.383 2.495 3.257 2.806 5.362 0.15-0.019 0.3-0.029 0.46-0.029v0zM29.454 17.178c-0.691-0.691-1.664-1.123-2.726-1.123-0.16 0-0.321 0.010-0.471 0.020-0.16 0.020-0.311 0.050-0.451 0.080l-0.822 0.2-0.050-0.842c-0.12-2.045-1.032-3.869-2.435-5.181-1.393-1.313-3.267-2.115-5.332-2.115-1.503 0-2.896 0.421-4.089 1.162-1.222 0.751-2.225 1.844-2.866 3.147l-0.301 0.591-0.611-0.261c-0.341-0.14-0.701-0.251-1.072-0.331-0.361-0.070-0.742-0.111-1.133-0.111-1.573 0-2.987 0.642-4.019 1.664-1.022 1.032-1.664 2.445-1.664 4.019 0 1.563 0.642 2.987 1.664 4.009 1.032 1.032 2.445 1.664 4.019 1.664h19.633c1.062 0 2.034-0.431 2.726-1.123 0.701-0.701 1.133-1.674 1.133-2.736s-0.432-2.034-1.133-2.735v0z"></path>
</svg>
