<?xml version="1.0" encoding="utf-8"?>
<!-- Generated by IcoMoon.io -->
<!DOCTYPE svg PUBLIC "-//W3C//DTD SVG 1.1//EN" "http://www.w3.org/Graphics/SVG/1.1/DTD/svg11.dtd">
<svg version="1.1" xmlns="http://www.w3.org/2000/svg" xmlns:xlink="http://www.w3.org/1999/xlink" width="32" height="32" viewBox="0 0 32 32">
<path d="M0 4.267v17.6c0 1.734 1.466 3.2 3.2 3.2h4.267v5.333c0 0.22 0.135 0.418 0.341 0.498 0.063 0.025 0.128 0.036 0.193 0.036 0.147 0 0.291-0.061 0.395-0.174l5.174-5.692h15.231c1.734 0 3.2-1.466 3.2-3.2v-17.6c0-1.734-1.466-3.2-3.2-3.2h-25.6c-1.734 0-3.2 1.466-3.2 3.2zM21.333 12.8c0-1.177 0.957-2.133 2.133-2.133s2.133 0.957 2.133 2.133-0.957 2.133-2.133 2.133-2.133-0.957-2.133-2.133zM13.867 12.8c0-1.177 0.957-2.133 2.133-2.133s2.133 0.957 2.133 2.133-0.957 2.133-2.133 2.133-2.133-0.957-2.133-2.133zM6.4 12.8c0-1.177 0.957-2.133 2.133-2.133s2.133 0.957 2.133 2.133-0.957 2.133-2.133 2.133-2.133-0.957-2.133-2.133z"></path>
</svg>
