<?xml version="1.0" encoding="utf-8"?>
<!-- Generated by IcoMoon.io -->
<!DOCTYPE svg PUBLIC "-//W3C//DTD SVG 1.1//EN" "http://www.w3.org/Graphics/SVG/1.1/DTD/svg11.dtd">
<svg version="1.1" xmlns="http://www.w3.org/2000/svg" xmlns:xlink="http://www.w3.org/1999/xlink" width="32" height="32" viewBox="0 0 32 32">
<path d="M16 0c-0.467 0-0.905 0.23-1.171 0.614-1.021 1.477-9.97 14.597-9.97 20.245 0 6.143 4.998 11.14 11.141 11.14s11.141-4.998 11.141-11.141c0-5.648-8.949-18.767-9.97-20.245-0.266-0.385-0.704-0.614-1.171-0.614zM16 29.153c-4.573 0-8.294-3.721-8.294-8.294 0-3.528 5.222-12.208 8.294-16.884 3.073 4.676 8.294 13.356 8.294 16.884 0 4.573-3.721 8.294-8.294 8.294z"></path>
</svg>
