<?xml version="1.0" encoding="utf-8"?>
<!-- Generated by IcoMoon.io -->
<!DOCTYPE svg PUBLIC "-//W3C//DTD SVG 1.1//EN" "http://www.w3.org/Graphics/SVG/1.1/DTD/svg11.dtd">
<svg version="1.1" xmlns="http://www.w3.org/2000/svg" xmlns:xlink="http://www.w3.org/1999/xlink" width="32" height="32" viewBox="0 0 32 32">
<path d="M31.63 17.891l-17.521-17.521c-0.251-0.251-0.597-0.385-0.952-0.369l-11.429 0.522c-0.653 0.030-1.176 0.552-1.205 1.205l-0.522 11.429c-0.016 0.355 0.118 0.7 0.369 0.952l17.521 17.521c0.494 0.494 1.294 0.494 1.788 0l11.951-11.951c0.494-0.494 0.494-1.294 0-1.788zM7.281 7.281c-0.964 0.963-2.526 0.963-3.489 0s-0.964-2.526 0-3.489 2.526-0.964 3.489 0c0.964 0.964 0.964 2.526 0 3.489z"></path>
</svg>
