<?xml version="1.0" encoding="utf-8"?>
<!-- Generated by IcoMoon.io -->
<!DOCTYPE svg PUBLIC "-//W3C//DTD SVG 1.1//EN" "http://www.w3.org/Graphics/SVG/1.1/DTD/svg11.dtd">
<svg version="1.1" xmlns="http://www.w3.org/2000/svg" xmlns:xlink="http://www.w3.org/1999/xlink" width="32" height="32" viewBox="0 0 32 32">
<path d="M16 0c-8.836 0-16 7.164-16 16s7.164 16 16 16 16-7.164 16-16c0-8.838-7.164-16-16-16zM25.83 19.582c-0.108 1.332-1.12 3.032-2.534 3.278-4.53 0.352-9.898 0.308-14.59 0-1.464-0.184-2.426-1.948-2.534-3.278-0.228-2.796-0.228-4.388 0-7.184 0.108-1.33 1.094-3.084 2.534-3.244 4.638-0.39 10.036-0.306 14.59 0 1.628 0.060 2.426 1.738 2.534 3.070 0.224 2.796 0.224 4.562 0 7.358z"></path>
<path d="M14 20l6-4-6-4z"></path>
</svg>
