<?xml version="1.0" encoding="utf-8"?>
<!-- Generated by IcoMoon.io -->
<!DOCTYPE svg PUBLIC "-//W3C//DTD SVG 1.1//EN" "http://www.w3.org/Graphics/SVG/1.1/DTD/svg11.dtd">
<svg version="1.1" xmlns="http://www.w3.org/2000/svg" xmlns:xlink="http://www.w3.org/1999/xlink" width="32" height="32" viewBox="0 0 32 32">
<path d="M24.283 7.504c-0.075-0.054-0.247-0.176-0.426-0.301l2.606-2.458-3.954-1.851-4.969 1.542 0.009-0.030 1.681-1.765-0.83-2.641-3.537 3.728-0.174 0.808-5.198-1.643-3.954 1.851 2.606 2.458c-0.179 0.125-0.351 0.247-0.426 0.301-2.105 1.505-3.128 3.884-3.128 7.273 0 0.182 0.006 0.364 0.014 0.545 0.281-0.459 0.704-0.751 1.178-0.751 0.847 0 1.533 0.934 1.533 2.087s-0.686 2.086-1.533 2.086c-0.208 0-0.406-0.056-0.586-0.158 0.548 1.763 1.425 3.444 2.462 4.993-0.001-0.036-0.002-0.072-0.002-0.109 0-1.152 0.686-2.086 1.533-2.086s1.533 0.934 1.533 2.086c0 1.152-0.686 2.087-1.533 2.087-0.025 0-0.051-0.001-0.076-0.003 1.851 2.305 6.889 6.446 6.889 6.446s5.037-4.141 6.889-6.446c-0.025 0.002-0.050 0.003-0.076 0.003-0.847 0-1.533-0.934-1.533-2.087s0.686-2.086 1.533-2.086 1.533 0.934 1.533 2.086c0 0.036-0.001 0.073-0.002 0.109 1.036-1.549 1.914-3.23 2.462-4.993-0.181 0.102-0.379 0.158-0.586 0.158-0.847 0-1.533-0.934-1.533-2.086s0.686-2.087 1.533-2.087c0.473 0 0.897 0.292 1.178 0.751 0.008-0.181 0.014-0.362 0.014-0.545-0-3.389-1.023-5.768-3.128-7.273zM9.187 11.93c-0.847 0-1.533-0.934-1.533-2.087s0.686-2.086 1.533-2.086 1.533 0.934 1.533 2.086c0 1.152-0.686 2.087-1.533 2.087zM12.593 18.743c-0.847 0-1.533-0.934-1.533-2.086s0.686-2.087 1.533-2.087 1.533 0.934 1.533 2.087c0 1.152-0.686 2.086-1.533 2.086zM16 25.556c-0.847 0-1.533-0.934-1.533-2.087s0.686-2.086 1.533-2.086 1.533 0.934 1.533 2.086c0 1.152-0.686 2.087-1.533 2.087zM16 11.93c-0.847 0-1.533-0.934-1.533-2.087s0.686-2.086 1.533-2.086 1.533 0.934 1.533 2.086c0 1.152-0.686 2.087-1.533 2.087zM19.406 18.743c-0.847 0-1.533-0.934-1.533-2.086s0.686-2.087 1.533-2.087 1.533 0.934 1.533 2.087c0 1.152-0.686 2.086-1.533 2.086zM22.813 11.93c-0.847 0-1.533-0.934-1.533-2.087s0.686-2.086 1.533-2.086 1.533 0.934 1.533 2.086c0 1.152-0.686 2.087-1.533 2.087z"></path>
</svg>
