<?xml version="1.0" encoding="utf-8"?>
<!-- Generated by IcoMoon.io -->
<!DOCTYPE svg PUBLIC "-//W3C//DTD SVG 1.1//EN" "http://www.w3.org/Graphics/SVG/1.1/DTD/svg11.dtd">
<svg version="1.1" xmlns="http://www.w3.org/2000/svg" xmlns:xlink="http://www.w3.org/1999/xlink" width="32" height="32" viewBox="0 0 32 32">
<path d="M16 0c-8.836 0-16 7.164-16 16s7.164 16 16 16 16-7.164 16-16c0-8.838-7.164-16-16-16zM23.96 12.408l0.012 0.51c0 5.208-3.962 11.208-11.208 11.208-2.224 0-4.294-0.652-6.038-1.77 0.308 0.036 0.622 0.056 0.94 0.056 1.846 0 3.544-0.63 4.892-1.686-1.724-0.032-3.178-1.172-3.68-2.736 0.242 0.046 0.486 0.068 0.742 0.068 0.36 0 0.708-0.046 1.038-0.136-1.802-0.364-3.16-1.954-3.16-3.862v-0.050c0.532 0.296 1.138 0.472 1.784 0.494-1.056-0.706-1.752-1.912-1.752-3.278 0-0.722 0.194-1.398 0.532-1.98 1.942 2.384 4.846 3.952 8.12 4.116-0.068-0.288-0.102-0.59-0.102-0.898 0-2.174 1.764-3.938 3.94-3.938 1.132 0 2.156 0.478 2.876 1.244 0.896-0.178 1.74-0.506 2.502-0.956-0.294 0.92-0.918 1.692-1.732 2.18 0.794-0.094 1.556-0.308 2.262-0.62-0.528 0.788-1.198 1.482-1.968 2.034z"></path>
</svg>
